<?xml version="1.0" standalone="no"?>
<!DOCTYPE svg PUBLIC "-//W3C//DTD SVG 20010904//EN"
 "http://www.w3.org/TR/2001/REC-SVG-20010904/DTD/svg10.dtd">
<svg version="1.0" xmlns="http://www.w3.org/2000/svg"
 width="660.000000pt" height="1280.000000pt" viewBox="0 0 660.000000 1280.000000"
 preserveAspectRatio="xMidYMid meet">
<g transform="translate(0.000000,1280.000000) scale(0.100000,-0.100000)"
fill="#4caf50" stroke="none">
<path d="M5870 12793 c-97 -16 -200 -71 -238 -127 -11 -17 -59 -125 -105 -241
-310 -770 -536 -1626 -726 -2745 -69 -403 -94 -571 -226 -1490 -126 -881 -157
-1084 -216 -1435 -195 -1159 -419 -2012 -733 -2798 l-93 -232 -47 -26 c-184
-101 -294 -288 -386 -659 -121 -486 -249 -725 -532 -995 -350 -334 -828 -538
-1398 -598 -19 -2 17 -5 80 -7 129 -3 128 -5 -20 -25 l-105 -14 210 5 c192 5
405 15 610 30 l80 5 -70 -42 c-231 -139 -571 -257 -885 -308 -195 -32 -314
-41 -554 -42 l-221 -2 104 -13 c57 -7 106 -16 110 -20 3 -3 -41 -3 -99 0 -58
3 -100 4 -95 1 19 -8 528 -65 765 -85 1361 -113 2379 29 3000 419 151 94 317
249 412 382 256 357 280 834 67 1287 -56 119 -151 268 -233 364 -57 67 -57 68
-41 98 9 18 21 93 31 192 74 785 236 1559 526 2503 145 476 275 856 717 2099
421 1184 624 1837 796 2566 114 485 213 1102 241 1501 6 90 5 100 -19 153 -60
131 -239 249 -439 290 -71 15 -207 19 -268 9z"/>
</g>
</svg>
